# xmcd
#
# Track frame offsets:
#	150
#	8138
#	24925
#	38510
#	63049
#	112580
#	137521
#	161608
#
# Disc length: 2800 seconds
#
# Revision: 1
# Processed by: cddbd v1.5.2PL0 Copyright (c) Steve Scherf et al.
# Submitted via: EasyCDDAExtractor 7.0.6.1
#
DISCID=4a0aee08
DTITLE=Eric Clapton and Friends - Live at Royal Albert Hall
DYEAR=1991
DGENRE=Blues
TTITLE0=2nd Half Intro
TTITLE1=Long Time Comin - Johnnie Johnson
TTITLE2=Johnnie's Boogie - Johnnie Johnson
TTITLE3=Leavin Town - Albert Collins
TTITLE4=I Can See your Light On - Albert Collins
TTITLE5=Black Cat Bone - Albert Collins
TTITLE6=Tired Man - Robert Cray
TTITLE7=Reconsider Baby - Robert Cray
EXTD=
EXTT0=
EXTT1=
EXTT2=
EXTT3=
EXTT4=
EXTT5=
EXTT6=
EXTT7=
PLAYORDER=
